<svg width="22" height="23" viewBox="0 0 22 23" fill="none" xmlns="http://www.w3.org/2000/svg">
<path d="M21 17.83C21 18.19 20.92 18.56 20.75 18.92C20.58 19.28 20.36 19.62 20.07 19.94C19.58 20.48 19.04 20.87 18.43 21.12C17.83 21.37 17.18 21.5 16.48 21.5C15.46 21.5 14.37 21.26 13.22 20.77C12.07 20.28 10.92 19.62 9.78003 18.79C8.61814 17.9401 7.52172 17.0041 6.50003 15.99C5.4888 14.972 4.55613 13.8789 3.71003 12.72C2.89003 11.58 2.23003 10.44 1.75003 9.31C1.27003 8.17 1.03003 7.08 1.03003 6.04C1.03003 5.36 1.15003 4.71 1.39003 4.11C1.63003 3.5 2.01003 2.94 2.54003 2.44C3.18003 1.81 3.88003 1.5 4.62003 1.5C4.90003 1.5 5.18003 1.56 5.43003 1.68C5.69003 1.8 5.92003 1.98 6.10003 2.24L8.42003 5.51C8.60003 5.76 8.73003 5.99 8.82003 6.21C8.91003 6.42 8.96003 6.63 8.96003 6.82C8.96003 7.06 8.89003 7.3 8.75003 7.53C8.62003 7.76 8.43003 8 8.19003 8.24L7.43003 9.03C7.32003 9.14 7.27003 9.27 7.27003 9.43C7.27003 9.51 7.28003 9.58 7.30003 9.66C7.33003 9.74 7.36003 9.8 7.38003 9.86C7.56003 10.19 7.87003 10.62 8.31003 11.14C8.76003 11.66 9.24003 12.19 9.76003 12.72C10.3 13.25 10.82 13.74 11.35 14.19C11.87 14.63 12.3 14.93 12.64 15.11C12.69 15.13 12.75 15.16 12.82 15.19C12.9 15.22 12.98 15.23 13.07 15.23C13.24 15.23 13.37 15.17 13.48 15.06L14.24 14.31C14.49 14.06 14.73 13.87 14.96 13.75C15.19 13.61 15.42 13.54 15.67 13.54C15.86 13.54 16.06 13.58 16.28 13.67C16.5 13.76 16.73 13.89 16.98 14.06L20.29 16.41C20.55 16.59 20.73 16.8 20.84 17.05C20.94 17.3 21 17.55 21 17.83Z" stroke="#C2C9D1" stroke-width="1.5" stroke-miterlimit="10"/>
<path d="M21 17.83C21 18.19 20.92 18.56 20.75 18.92C20.58 19.28 20.36 19.62 20.07 19.94C19.58 20.48 19.04 20.87 18.43 21.12C17.83 21.37 17.18 21.5 16.48 21.5C15.46 21.5 14.37 21.26 13.22 20.77C12.07 20.28 10.92 19.62 9.78003 18.79C8.61814 17.9401 7.52172 17.0041 6.50003 15.99C5.4888 14.972 4.55613 13.8789 3.71003 12.72C2.89003 11.58 2.23003 10.44 1.75003 9.31C1.27003 8.17 1.03003 7.08 1.03003 6.04C1.03003 5.36 1.15003 4.71 1.39003 4.11C1.63003 3.5 2.01003 2.94 2.54003 2.44C3.18003 1.81 3.88003 1.5 4.62003 1.5C4.90003 1.5 5.18003 1.56 5.43003 1.68C5.69003 1.8 5.92003 1.98 6.10003 2.24L8.42003 5.51C8.60003 5.76 8.73003 5.99 8.82003 6.21C8.91003 6.42 8.96003 6.63 8.96003 6.82C8.96003 7.06 8.89003 7.3 8.75003 7.53C8.62003 7.76 8.43003 8 8.19003 8.24L7.43003 9.03C7.32003 9.14 7.27003 9.27 7.27003 9.43C7.27003 9.51 7.28003 9.58 7.30003 9.66C7.33003 9.74 7.36003 9.8 7.38003 9.86C7.56003 10.19 7.87003 10.62 8.31003 11.14C8.76003 11.66 9.24003 12.19 9.76003 12.72C10.3 13.25 10.82 13.74 11.35 14.19C11.87 14.63 12.3 14.93 12.64 15.11C12.69 15.13 12.75 15.16 12.82 15.19C12.9 15.22 12.98 15.23 13.07 15.23C13.24 15.23 13.37 15.17 13.48 15.06L14.24 14.31C14.49 14.06 14.73 13.87 14.96 13.75C15.19 13.61 15.42 13.54 15.67 13.54C15.86 13.54 16.06 13.58 16.28 13.67C16.5 13.76 16.73 13.89 16.98 14.06L20.29 16.41C20.55 16.59 20.73 16.8 20.84 17.05C20.94 17.3 21 17.55 21 17.83Z" stroke="black" stroke-opacity="0.25" stroke-width="1.5" stroke-miterlimit="10"/>
</svg>
