<svg width="34" height="33" viewBox="0 0 34 33" fill="none" xmlns="http://www.w3.org/2000/svg">
<g filter="url(#filter0_d_1125_523)">
<path d="M15.375 4.16663H13.125C7.5 4.16663 5.25 6.33329 5.25 11.75V18.25C5.25 23.6666 7.5 25.8333 13.125 25.8333H19.875C25.5 25.8333 27.75 23.6666 27.75 18.25V16.0833" stroke="#50514F" stroke-width="2" stroke-linecap="round" stroke-linejoin="round"/>
<path d="M15.375 4.16663H13.125C7.5 4.16663 5.25 6.33329 5.25 11.75V18.25C5.25 23.6666 7.5 25.8333 13.125 25.8333H19.875C25.5 25.8333 27.75 23.6666 27.75 18.25V16.0833" stroke="white" stroke-opacity="0.95" stroke-width="2" stroke-linecap="round" stroke-linejoin="round"/>
</g>
<g filter="url(#filter1_d_1125_523)">
<path d="M21.045 5.2717L12.18 13.8084C11.8425 14.1334 11.505 14.7725 11.4375 15.2384L10.9537 18.4992C10.7737 19.68 11.64 20.5034 12.8662 20.3409L16.2525 19.875C16.725 19.81 17.3887 19.485 17.7375 19.16L26.6025 10.6234C28.1325 9.15003 28.8525 7.43836 26.6025 5.2717C24.3525 3.10503 22.575 3.79836 21.045 5.2717Z" stroke="#50514F" stroke-width="2" stroke-miterlimit="10" stroke-linecap="round" stroke-linejoin="round"/>
<path d="M21.045 5.2717L12.18 13.8084C11.8425 14.1334 11.505 14.7725 11.4375 15.2384L10.9537 18.4992C10.7737 19.68 11.64 20.5034 12.8662 20.3409L16.2525 19.875C16.725 19.81 17.3887 19.485 17.7375 19.16L26.6025 10.6234C28.1325 9.15003 28.8525 7.43836 26.6025 5.2717C24.3525 3.10503 22.575 3.79836 21.045 5.2717Z" stroke="white" stroke-opacity="0.95" stroke-width="2" stroke-miterlimit="10" stroke-linecap="round" stroke-linejoin="round"/>
</g>
<path d="M19.7737 6.49585C20.1468 7.77144 20.8537 8.93342 21.8268 9.87048C22.7999 10.8075 24.0066 11.4883 25.3312 11.8475" stroke="#50514F" stroke-width="2" stroke-miterlimit="10" stroke-linecap="round" stroke-linejoin="round"/>
<path d="M19.7737 6.49585C20.1468 7.77144 20.8537 8.93342 21.8268 9.87048C22.7999 10.8075 24.0066 11.4883 25.3312 11.8475" stroke="white" stroke-opacity="0.95" stroke-width="2" stroke-miterlimit="10" stroke-linecap="round" stroke-linejoin="round"/>
<defs>
<filter id="filter0_d_1125_523" x="0.25" y="1.16663" width="32.5" height="31.6666" filterUnits="userSpaceOnUse" color-interpolation-filters="sRGB">
<feFlood flood-opacity="0" result="BackgroundImageFix"/>
<feColorMatrix in="SourceAlpha" type="matrix" values="0 0 0 0 0 0 0 0 0 0 0 0 0 0 0 0 0 0 127 0" result="hardAlpha"/>
<feOffset dy="2"/>
<feGaussianBlur stdDeviation="2"/>
<feColorMatrix type="matrix" values="0 0 0 0 0 0 0 0 0 0 0 0 0 0 0 0 0 0 0.24 0"/>
<feBlend mode="normal" in2="BackgroundImageFix" result="effect1_dropShadow_1125_523"/>
<feBlend mode="normal" in="SourceGraphic" in2="effect1_dropShadow_1125_523" result="shape"/>
</filter>
<filter id="filter1_d_1125_523" x="5.9303" y="0.894409" width="27.1025" height="26.4667" filterUnits="userSpaceOnUse" color-interpolation-filters="sRGB">
<feFlood flood-opacity="0" result="BackgroundImageFix"/>
<feColorMatrix in="SourceAlpha" type="matrix" values="0 0 0 0 0 0 0 0 0 0 0 0 0 0 0 0 0 0 127 0" result="hardAlpha"/>
<feOffset dy="2"/>
<feGaussianBlur stdDeviation="2"/>
<feColorMatrix type="matrix" values="0 0 0 0 0 0 0 0 0 0 0 0 0 0 0 0 0 0 0.24 0"/>
<feBlend mode="normal" in2="BackgroundImageFix" result="effect1_dropShadow_1125_523"/>
<feBlend mode="normal" in="SourceGraphic" in2="effect1_dropShadow_1125_523" result="shape"/>
</filter>
</defs>
</svg>
