<svg width="35" height="35" viewBox="0 0 35 35" fill="none" xmlns="http://www.w3.org/2000/svg">
<path d="M17.4638 32.9277C26.0043 32.9277 32.9277 26.0043 32.9277 17.4638C32.9277 8.9234 26.0043 2 17.4638 2C8.9234 2 2 8.9234 2 17.4638C2 26.0043 8.9234 32.9277 17.4638 32.9277Z" stroke="#50514F" stroke-width="3.09277" stroke-linecap="round"/>
<path d="M17.4638 32.9277C26.0043 32.9277 32.9277 26.0043 32.9277 17.4638C32.9277 8.9234 26.0043 2 17.4638 2C8.9234 2 2 8.9234 2 17.4638C2 26.0043 8.9234 32.9277 17.4638 32.9277Z" stroke="white" stroke-opacity="0.95" stroke-width="3.09277" stroke-linecap="round"/>
<path d="M11.2783 12.902V12.7473" stroke="#50514F" stroke-width="3.09277" stroke-linecap="round"/>
<path d="M11.2783 12.902V12.7473" stroke="white" stroke-opacity="0.95" stroke-width="3.09277" stroke-linecap="round"/>
<path d="M23.6494 12.902V12.7473" stroke="#50514F" stroke-width="3.09277" stroke-linecap="round"/>
<path d="M23.6494 12.902V12.7473" stroke="white" stroke-opacity="0.95" stroke-width="3.09277" stroke-linecap="round"/>
<path d="M23.6494 23.6494C22.8762 21.3298 20.88 19.0103 17.4639 19.0103C14.0477 19.0103 12.0515 21.3298 11.2783 23.6494" stroke="#50514F" stroke-width="3.09277" stroke-linecap="round" stroke-linejoin="round"/>
<path d="M23.6494 23.6494C22.8762 21.3298 20.88 19.0103 17.4639 19.0103C14.0477 19.0103 12.0515 21.3298 11.2783 23.6494" stroke="white" stroke-opacity="0.95" stroke-width="3.09277" stroke-linecap="round" stroke-linejoin="round"/>
</svg>
