<svg width="27" height="26" viewBox="0 0 27 26" fill="none" xmlns="http://www.w3.org/2000/svg">
<path fill-rule="evenodd" clip-rule="evenodd" d="M14.262 0.0218636C14.1892 0.036952 14.0394 0.152971 14.0394 0.194281C14.0394 0.207319 14.0174 0.241011 13.9906 0.269211C13.9636 0.297629 13.9295 0.413283 13.9143 0.528423C13.8991 0.642831 13.8696 0.765809 13.8484 0.801772C13.8273 0.837662 13.7951 0.906658 13.7768 0.955C13.7169 1.11335 13.4529 1.46786 13.2277 1.69221C13.0305 1.88865 12.9536 1.94944 12.6964 2.11226C12.5338 2.21525 12.2805 2.34665 12.2445 2.34687C12.223 2.34694 12.1639 2.37324 12.113 2.40524C11.9431 2.51218 11.7169 2.45556 11.8076 2.32885C11.823 2.30732 11.9082 2.1902 11.997 2.06854C12.0857 1.94695 12.1673 1.81372 12.1782 1.77241C12.1891 1.73117 12.217 1.69045 12.2402 1.68195C12.2635 1.67346 12.2825 1.6457 12.2825 1.62028C12.2825 1.59486 12.3092 1.52052 12.3418 1.45497C12.7411 0.651914 12.5424 0.0568013 11.9006 0.132976C11.6579 0.161834 11.4973 0.352563 11.4646 0.650962C11.4533 0.753724 11.4178 0.887688 11.3856 0.948554C11.3534 1.00949 11.3271 1.07739 11.3271 1.09937C11.3271 1.13672 11.1891 1.40853 11.1031 1.54088C11.0267 1.65844 10.8848 1.80691 10.7607 1.89912C10.6907 1.95113 10.6101 2.01522 10.5815 2.04158C10.5113 2.10619 10.2477 2.22711 10.1712 2.22982C10.1373 2.23107 10.0541 2.25407 9.9863 2.28102C9.87434 2.32548 9.54216 2.33141 6.37713 2.34562C3.64069 2.35793 2.88123 2.36921 2.84455 2.39814C2.8189 2.41843 2.71618 2.44926 2.6164 2.46662C2.51661 2.48405 2.41413 2.51533 2.3887 2.5362C2.36327 2.55701 2.30779 2.58359 2.26541 2.59517C2.13218 2.63157 1.78528 2.80662 1.56891 2.94652C1.14789 3.21884 0.504401 4.0676 0.357842 4.54399C0.335497 4.6165 0.305599 4.68945 0.291344 4.70615C0.277089 4.72278 0.251353 4.81968 0.234092 4.92149C0.216909 5.02322 0.187937 5.1235 0.169752 5.1443C0.151644 5.1651 0.123673 5.29108 0.107723 5.42431C0.0916953 5.55747 0.0610274 5.71385 0.0395291 5.77178C0.0120206 5.84576 0.000385294 6.09011 0.000231184 6.59483L0 7.31263L1.30993 7.32076C2.03039 7.32523 2.65253 7.32135 2.69245 7.31212L2.76511 7.29535L2.75402 6.84013C2.73976 6.25146 2.82067 6.30186 1.89039 6.30186C1.00842 6.30186 1.05357 6.32368 1.09395 5.91696C1.10782 5.77779 1.13255 5.63936 1.14896 5.60933C1.16538 5.5793 1.1888 5.48884 1.20105 5.40827C1.21323 5.3277 1.24798 5.20905 1.27811 5.14459C1.30831 5.08014 1.34206 4.97928 1.35308 4.92046C1.36418 4.86165 1.39223 4.79858 1.41542 4.78027C1.43861 4.76196 1.46635 4.70263 1.47706 4.64843C1.48777 4.59423 1.5169 4.53373 1.54194 4.51403C1.56691 4.49433 1.58733 4.46056 1.58733 4.43903C1.58733 4.32491 2.20592 3.71925 2.40842 3.63509C2.47862 3.60587 2.54527 3.56771 2.55668 3.55028C2.56801 3.53284 2.59798 3.51856 2.62341 3.51856C2.64876 3.51856 2.73013 3.49227 2.80426 3.46019C2.97354 3.38687 3.69031 3.34226 3.80027 3.39822L3.86815 3.43272V8.83334C3.86815 13.3322 3.87539 14.2749 3.91138 14.4795C3.93519 14.6145 3.96408 14.8234 3.97557 14.9438C3.98712 15.0642 4.01009 15.1868 4.02673 15.2164C4.04337 15.2459 4.07612 15.3517 4.09955 15.4516C4.16296 15.7224 4.2881 16.0563 4.44229 16.3661C4.48251 16.4469 4.51541 16.5359 4.51541 16.5639C4.51541 16.5918 4.52913 16.6147 4.54585 16.6147C4.56257 16.6147 4.59694 16.6575 4.62229 16.7099C4.8046 17.0867 5.47574 17.8546 5.89623 18.1675C5.9504 18.2078 6.02461 18.2638 6.06113 18.292C6.09765 18.3202 6.13587 18.3433 6.14597 18.3433C6.15614 18.3433 6.20468 18.3763 6.25392 18.4165C6.30316 18.4568 6.36141 18.4898 6.38337 18.4898C6.40533 18.4898 6.43438 18.5062 6.44795 18.5264C6.46151 18.5465 6.52115 18.5863 6.58048 18.6148C6.63981 18.6433 6.77158 18.7073 6.87329 18.7571C7.15739 18.8963 7.29624 18.9542 7.39726 18.9759C7.44812 18.9868 7.51053 19.0119 7.53596 19.0317C7.56139 19.0515 7.62511 19.0754 7.67759 19.0847C7.78585 19.1041 8.1 19.294 8.23307 19.4207C8.41423 19.5931 8.70041 20.0877 8.75389 20.3209C8.76498 20.3692 8.79503 20.4615 8.82069 20.526C8.86076 20.6268 8.8667 20.9287 8.86307 22.6939L8.85884 24.7445L8.77531 24.81C8.58437 24.9597 8.22306 24.9938 6.81881 24.9945C5.62831 24.9951 5.1364 25.0248 5.03353 25.102C5.01134 25.1187 4.95462 25.141 4.90762 25.1517C4.8224 25.1711 4.79666 25.189 4.60225 25.3644C4.37679 25.5678 4.21004 25.8702 4.27747 25.9534C4.35244 26.0457 8.68901 25.9879 8.83218 25.8926C8.87271 25.8656 8.93404 25.8435 8.96856 25.8435C9.27139 25.8435 9.74212 25.4138 9.89931 24.9939L9.97066 24.8034L9.97074 22.8612C9.97089 21.2282 9.96334 20.8843 9.9235 20.7011C9.89754 20.5813 9.86409 20.4006 9.84938 20.2995C9.82256 20.1159 9.77448 19.9648 9.64641 19.6617C9.54655 19.4255 9.54408 19.4205 9.47836 19.3247C9.44515 19.2764 9.39491 19.1973 9.36678 19.149C9.33866 19.1006 9.29635 19.0413 9.27277 19.0171C9.2492 18.993 9.17823 18.9142 9.11497 18.8421C8.94776 18.6515 8.84142 18.5626 8.59932 18.4111C8.48065 18.3368 8.34596 18.2516 8.30003 18.2218C8.25411 18.1919 8.20117 18.1675 8.18245 18.1675C8.14307 18.1675 7.88471 18.0718 7.70548 17.9908C7.63767 17.9602 7.54752 17.9215 7.50514 17.9049C7.46276 17.8883 7.40728 17.8636 7.38185 17.85C7.35642 17.8366 7.25255 17.7871 7.15099 17.7401C6.97723 17.6598 6.62116 17.444 6.51884 17.3569C6.33645 17.2018 6.10544 16.9698 5.96404 16.7997C5.75861 16.5527 5.625 16.3824 5.625 16.3675C5.625 16.3578 5.59117 16.3006 5.5498 16.2405C5.50849 16.1804 5.46534 16.095 5.45402 16.0507C5.44269 16.0064 5.42211 15.9701 5.40832 15.9701C5.39453 15.9701 5.36687 15.9207 5.34691 15.8603C5.32695 15.7999 5.28426 15.6968 5.25205 15.6313C5.21985 15.5658 5.19303 15.4801 5.19249 15.4409C5.19195 15.4016 5.172 15.345 5.14803 15.315C5.12414 15.285 5.09586 15.1861 5.08515 15.0952C5.07444 15.0044 5.04247 14.8707 5.01403 14.7982C4.93652 14.6006 4.91764 4.1867 4.99446 4.03274C5.06843 3.88456 5.24774 3.69918 5.3738 3.64059C5.43568 3.6118 5.51404 3.57408 5.54795 3.55672C5.6989 3.4796 5.98045 3.42569 6.38014 3.39756C6.95211 3.35728 10.333 3.3824 10.5257 3.42832C10.602 3.44656 10.7545 3.47835 10.8647 3.49901C10.9749 3.51966 11.1136 3.55782 11.1729 3.58375C11.2323 3.60968 11.3259 3.64674 11.381 3.66615C11.4361 3.68556 11.4812 3.71303 11.4812 3.72724C11.4812 3.74137 11.5015 3.75294 11.5263 3.75294C11.5751 3.75294 11.9077 3.92514 12.1747 4.08862C12.2673 4.14532 12.5926 4.39391 12.6216 4.43009C12.6429 4.45675 12.8349 4.67736 12.9375 4.79302C12.9841 4.84561 13.0223 4.90274 13.0223 4.91995C13.0223 4.93716 13.0397 4.96177 13.0609 4.97466C13.0949 4.99532 13.1338 5.04827 13.2935 5.29108C13.3147 5.32331 13.3598 5.40241 13.3938 5.46687C13.4278 5.53132 13.4686 5.60384 13.4844 5.62801C13.5472 5.72425 13.6695 6.0028 13.6695 6.04975C13.6695 6.07721 13.6889 6.1353 13.7126 6.17881C13.7363 6.22239 13.7651 6.33709 13.7766 6.4337C13.7882 6.53038 13.8111 6.65131 13.8276 6.70243C13.8442 6.75356 13.8673 6.87851 13.8792 6.98003L13.9007 7.16468L14.0856 7.28956C14.1873 7.35819 14.2983 7.42711 14.3322 7.44264C14.3661 7.45817 14.4632 7.53215 14.5479 7.60708C14.6327 7.682 14.7402 7.76924 14.7868 7.80095L14.8715 7.8586L14.9024 7.78147C14.974 7.60246 14.9058 6.42615 14.8077 6.1479C14.775 6.05524 14.7483 5.95299 14.7483 5.92076C14.7483 5.88854 14.7205 5.81295 14.6866 5.75281C14.6527 5.69275 14.625 5.62603 14.625 5.60464C14.625 5.5385 14.2789 4.84832 14.1705 4.69831C14.1499 4.66982 14.0669 4.55175 13.9861 4.43588C13.7878 4.15191 13.554 3.89958 13.2444 3.63575C12.8941 3.33721 12.8441 3.27012 12.9158 3.19475C12.9457 3.16333 12.9888 3.13769 13.0116 3.13769C13.0344 3.13769 13.0531 3.12758 13.0531 3.1152C13.0531 3.1029 13.1302 3.04892 13.2245 2.9953C13.4956 2.8412 13.8561 2.57246 14.024 2.39946C14.2041 2.21371 14.4709 1.89238 14.4709 1.86118C14.4709 1.84924 14.5021 1.7987 14.5402 1.74882C14.6568 1.59633 14.8273 1.23846 14.9113 0.969649C15.1219 0.295872 14.8508 -0.0997957 14.262 0.0218636ZM7.48171 4.42548C6.5485 4.56537 6.64883 5.91827 7.5976 5.98939C8.40814 6.05011 8.80575 5.68089 8.69378 4.97144C8.66674 4.79976 8.35359 4.47829 8.18137 4.44533C7.99721 4.41009 7.64992 4.40021 7.48171 4.42548ZM8.61473 7.29879C8.5893 7.31483 8.50901 7.34266 8.43627 7.36068C8.33355 7.3861 8.28354 7.42169 8.2125 7.51984L8.12104 7.64619L8.12905 10.9219C8.13768 14.4708 8.13475 14.4051 8.30974 15.018C8.34195 15.1308 8.36831 15.2564 8.36823 15.2971C8.36823 15.3378 8.38726 15.3972 8.41069 15.4289C8.43403 15.4607 8.46963 15.5623 8.48982 15.6547C8.50993 15.747 8.53898 15.83 8.55432 15.839C8.56965 15.848 8.59723 15.9109 8.61557 15.9787C8.63391 16.0465 8.67521 16.1547 8.70727 16.2192C8.73932 16.2836 8.77315 16.3561 8.7824 16.3803C8.79172 16.4045 8.81322 16.444 8.83033 16.4682C8.84735 16.4924 8.87602 16.5451 8.89397 16.5854C8.912 16.6257 8.96679 16.7246 9.0158 16.8051C9.0648 16.8857 9.12082 16.9879 9.14024 17.0322C9.15966 17.0765 9.1864 17.1128 9.19965 17.1128C9.21283 17.1128 9.24095 17.1523 9.26199 17.2007C9.28302 17.249 9.31076 17.2885 9.32363 17.2885C9.3365 17.2885 9.36378 17.3271 9.38435 17.3743C9.40492 17.4215 9.44129 17.4673 9.46518 17.476C9.48899 17.4847 9.50856 17.5063 9.50856 17.524C9.50856 17.5525 9.627 17.7024 9.86664 17.977C10.2011 18.3603 11.3248 19.4427 11.4174 19.4706C11.4525 19.4812 11.4812 19.5024 11.4812 19.5179C11.4812 19.5333 11.5124 19.5588 11.5505 19.5746C11.5887 19.5904 11.6823 19.6486 11.7586 19.7038C11.8348 19.7591 11.9086 19.8052 11.9225 19.8062C11.9363 19.8073 11.993 19.8411 12.0486 19.8814C12.1042 19.9217 12.1639 19.9547 12.1815 19.9547C12.199 19.9547 12.2283 19.9718 12.2466 19.9928C12.265 20.0138 12.3811 20.0803 12.5047 20.1405C12.6283 20.2008 12.7503 20.2613 12.7757 20.275C12.8011 20.2887 12.8566 20.3149 12.899 20.3333C12.9414 20.3516 13.0662 20.412 13.1764 20.4676C13.2866 20.5232 13.3941 20.569 13.4153 20.5692C13.4366 20.5696 13.5058 20.5963 13.569 20.6285C13.6322 20.6607 13.709 20.6871 13.7394 20.6871C13.7698 20.6871 13.8464 20.7078 13.9094 20.7332C13.9724 20.7586 14.0996 20.7913 14.1919 20.8059C14.2842 20.8205 14.4021 20.8509 14.4539 20.8737C14.5056 20.8964 14.6287 20.924 14.7274 20.9352C14.826 20.9464 14.9573 20.9755 15.019 21.0001C15.2568 21.0945 15.7962 21.0164 15.7962 20.8876C15.7962 20.8763 15.8205 20.844 15.8502 20.8158C15.901 20.7674 15.9044 20.5069 15.9101 16.2679C15.915 12.6121 15.9236 11.7647 15.9564 11.7359C16.1702 11.5483 17.4639 11.6783 17.7712 11.9183C17.798 11.9393 17.8327 11.9565 17.8483 11.9567C17.9558 11.9582 18.53 12.5105 18.6401 12.7182C18.687 12.8068 18.7382 12.899 18.7538 12.9232C18.8116 13.0127 18.9401 13.3018 18.9401 13.3424C18.9401 13.3656 18.9666 13.4422 18.999 13.5127C19.0315 13.5833 19.068 13.7333 19.0802 13.8461C19.0923 13.9588 19.1141 14.0812 19.1286 14.1178C19.143 14.1545 19.1695 14.2709 19.1872 14.3766C19.205 14.4823 19.2385 14.5974 19.2617 14.6323C19.2849 14.6671 19.3135 14.7418 19.3252 14.7982C19.3645 14.9874 19.7207 15.6146 19.8049 15.643C19.8209 15.6484 19.8339 15.6687 19.8339 15.6883C19.8339 15.7446 20.3564 16.2395 20.5343 16.3519C20.6229 16.4078 20.6957 16.4628 20.6961 16.4741C20.6984 16.5327 20.4679 16.6496 20.2768 16.6866C20.1604 16.7092 19.997 16.7484 19.9137 16.7737C19.8305 16.7991 19.7196 16.8202 19.6672 16.8208C19.6148 16.8213 19.5164 16.8472 19.4486 16.8784C19.3808 16.9095 19.2803 16.9354 19.2253 16.9359C19.1702 16.9365 19.0454 16.9626 18.9479 16.994C18.8504 17.0252 18.7014 17.0602 18.617 17.0715C18.5324 17.0829 18.4215 17.1087 18.3704 17.1289C18.3192 17.1491 18.1975 17.1751 18.0998 17.1866C18.0021 17.1981 17.9152 17.2182 17.9066 17.2314C17.8981 17.2445 17.8115 17.2709 17.7144 17.29C17.6172 17.3091 17.503 17.3474 17.4606 17.3751C17.4182 17.4028 17.3606 17.4334 17.3326 17.4429C17.3044 17.4525 17.2722 17.5007 17.2608 17.5499C17.2494 17.5992 17.2273 17.647 17.2117 17.6562C17.1247 17.7073 17.2118 18.0422 17.3423 18.1584C17.4938 18.2932 17.9934 18.3049 18.2774 18.1802C18.3283 18.1578 18.4664 18.1254 18.5845 18.108C18.7024 18.0906 18.8149 18.0639 18.8344 18.0485C18.8539 18.0332 18.9724 18.0019 19.0976 17.9791C19.2229 17.9562 19.4012 17.9168 19.4939 17.8914C19.5866 17.866 19.6947 17.8452 19.7343 17.8452C19.7738 17.8452 19.8436 17.8271 19.8894 17.805C19.9352 17.7829 20.0548 17.7553 20.1554 17.7436C20.2559 17.732 20.3668 17.7048 20.402 17.6832C20.437 17.6616 20.5559 17.631 20.6661 17.6154C20.7763 17.5997 20.9219 17.5665 20.9897 17.5415C21.0575 17.5166 21.1586 17.4956 21.2142 17.4949C21.2698 17.4942 21.3647 17.474 21.425 17.4501C21.4853 17.4262 21.627 17.3915 21.7399 17.3732C21.8528 17.3549 21.9598 17.3289 21.9777 17.3154C21.9956 17.3019 22.1135 17.2758 22.2397 17.2573C22.3659 17.2389 22.4851 17.2116 22.5044 17.1966C22.5237 17.1817 22.6416 17.1507 22.7664 17.1278C23.0056 17.0839 23.2917 17.0181 23.5479 16.9482C23.6327 16.9251 23.7753 16.8936 23.8647 16.8782C23.9542 16.8629 24.0536 16.8369 24.0857 16.8206C24.1178 16.8043 24.2446 16.7774 24.3676 16.7608C24.4906 16.7442 24.6076 16.7177 24.6277 16.7018C24.6479 16.6859 24.7669 16.654 24.8921 16.6309C25.1599 16.5816 25.465 16.511 25.6592 16.4534C25.7355 16.4309 25.8673 16.4035 25.9521 16.3925C26.0368 16.3816 26.1418 16.3555 26.1855 16.3345C26.2291 16.3134 26.354 16.2832 26.4629 16.2672C26.5718 16.2513 26.7372 16.2115 26.8305 16.1789L27 16.1196L26.992 15.8178C26.9871 15.6327 26.967 15.4819 26.9401 15.4278C26.9159 15.3793 26.8864 15.2698 26.8746 15.1844C26.8626 15.0991 26.8271 14.9811 26.7955 14.9222C26.7638 14.8633 26.738 14.7959 26.738 14.7724C26.738 14.6826 26.5328 14.232 26.3885 14.0049C26.1624 13.6492 25.3999 12.8939 25.2669 12.8939C25.2495 12.8939 25.2181 12.8742 25.1971 12.8501C25.176 12.826 25.1048 12.7909 25.0388 12.7721C24.9728 12.7532 24.9034 12.7203 24.8845 12.6987C24.8657 12.6771 24.8272 12.6595 24.799 12.6595C24.7707 12.6595 24.6953 12.6341 24.6313 12.6031C24.366 12.4745 22.8985 12.4589 22.6469 12.582C22.6 12.6049 22.4646 12.6371 22.3459 12.6534C22.2272 12.6697 22.0747 12.7036 22.0069 12.7286C21.939 12.7536 21.835 12.7747 21.7757 12.7754C21.7164 12.7761 21.5948 12.803 21.5057 12.8353C21.4165 12.8675 21.3039 12.8939 21.2554 12.8939C21.2069 12.8939 21.0804 12.9202 20.9743 12.9525C20.8682 12.9847 20.7412 13.0111 20.6921 13.0111C20.6431 13.0111 20.524 13.0374 20.4275 13.0697C20.1098 13.1759 19.9426 13.1403 19.9083 12.9594C19.8969 12.8992 19.8696 12.817 19.8476 12.7767C19.8257 12.7364 19.7645 12.6156 19.7117 12.5083C19.6589 12.4009 19.5954 12.2971 19.5707 12.2777C19.546 12.2581 19.5257 12.2282 19.5257 12.2112C19.5257 12.1031 19.0924 11.6072 18.8038 11.385C18.741 11.3367 18.6627 11.2741 18.6299 11.2459C18.5971 11.2177 18.5646 11.1946 18.5577 11.1946C18.5509 11.1946 18.444 11.1353 18.3202 11.0628C18.1966 10.9902 18.0739 10.9308 18.0476 10.9308C18.0214 10.9308 17.9546 10.9044 17.8991 10.8722C17.8436 10.84 17.7644 10.8137 17.723 10.8137C17.6817 10.8137 17.5745 10.7851 17.4849 10.7501C17.3326 10.6907 17.2665 10.6863 16.4743 10.6814C15.4707 10.6754 15.5587 10.6828 15.5332 10.6013C15.5095 10.5251 15.2404 9.99309 15.2035 9.94944C15.1272 9.85927 14.9959 9.65126 14.9954 9.61984C14.9951 9.5997 14.9845 9.58263 14.9717 9.58182C14.959 9.58109 14.9001 9.51422 14.8408 9.43321C14.5189 8.99374 13.8187 8.37409 13.3336 8.09943C13.0881 7.96041 12.3433 7.62026 12.2843 7.62026C12.2663 7.62026 12.1997 7.59389 12.1364 7.56166C12.0733 7.52944 11.9832 7.50307 11.9364 7.50307C11.8896 7.50307 11.7714 7.47736 11.674 7.44601C11.5713 7.41298 11.3269 7.37577 11.0938 7.3576C10.8723 7.34039 10.6435 7.31329 10.5854 7.29747C10.4448 7.25909 8.67568 7.26026 8.61473 7.29879ZM11.0342 8.36171C11.1529 8.38684 11.3332 8.42016 11.4349 8.43576C11.6386 8.46704 11.8603 8.53245 12.0548 8.6188C12.1244 8.64971 12.2033 8.67498 12.2301 8.67498C12.257 8.67498 12.2882 8.68926 12.2995 8.7067C12.3109 8.72413 12.3775 8.76383 12.4477 8.79488C12.6281 8.87479 12.9326 9.06061 13.126 9.20886C13.1622 9.23655 13.27 9.31851 13.3655 9.39087C13.5667 9.54322 13.9161 9.90212 13.9161 9.95632C13.9161 9.97676 13.9286 9.99338 13.9438 9.99338C13.9592 9.99338 14.0042 10.0428 14.044 10.1033C14.0838 10.1637 14.1472 10.2593 14.1849 10.3157C14.2226 10.3721 14.2743 10.4578 14.2999 10.5061C14.3255 10.5544 14.3594 10.6138 14.3753 10.6379C14.4459 10.7452 14.5634 10.9925 14.5634 11.034C14.5634 11.059 14.5826 11.1087 14.6061 11.1444C14.6296 11.18 14.6661 11.2818 14.6873 11.3704C14.7084 11.459 14.7396 11.5572 14.7568 11.5887C14.8492 11.7584 14.9365 17.0018 14.8535 17.3967C14.8249 17.5323 14.7367 17.5677 14.5982 17.4991C14.5353 17.4678 14.4403 17.4333 14.3871 17.4222C14.3338 17.4111 14.2737 17.383 14.2535 17.3599C14.2333 17.3367 14.1942 17.3176 14.1666 17.3174C14.139 17.3172 14.0818 17.2981 14.0394 17.2749C13.997 17.2518 13.9103 17.2111 13.8467 17.1843C13.7832 17.1576 13.7312 17.124 13.7312 17.1096C13.7312 17.0952 13.7115 17.0835 13.6875 17.0835C13.5917 17.0835 13.0313 16.583 12.7832 16.2759C12.745 16.2286 12.6814 16.1503 12.6418 16.102C12.4939 15.9214 12.1592 15.3244 12.1592 15.2411C12.1592 15.222 12.1364 15.1733 12.1086 15.133C12.0808 15.0925 12.0472 15.0106 12.034 14.9509C12.0208 14.8911 11.9886 14.7828 11.9626 14.7103C11.9006 14.5376 11.7895 14.0814 11.7892 13.9988C11.7891 13.9418 11.6646 13.793 11.5355 13.6956C11.3842 13.5815 11.1292 13.6201 10.9426 13.7853L10.8031 13.9087V14.2226C10.8031 14.4523 10.8187 14.5813 10.8616 14.704C10.8937 14.7961 10.9295 14.9267 10.941 14.9943C10.9526 15.0618 10.9886 15.1668 11.0212 15.2275C11.0538 15.2883 11.0805 15.3605 11.0805 15.388C11.0805 15.4155 11.1004 15.4754 11.1247 15.521C11.149 15.5666 11.206 15.683 11.2514 15.7797C11.2968 15.8764 11.3463 15.9753 11.3615 15.9994C11.3767 16.0236 11.4133 16.0895 11.4428 16.1459C11.4724 16.2023 11.5139 16.259 11.5351 16.2719C11.5563 16.2848 11.5736 16.3102 11.5736 16.3284C11.5736 16.3844 11.8597 16.7802 12.1068 17.0657C12.2275 17.2053 12.608 17.5498 12.7821 17.6772C13.2541 18.0226 13.2624 18.028 13.4427 18.1068C13.5129 18.1375 13.5795 18.1769 13.5909 18.1944C13.6023 18.2118 13.6335 18.2261 13.6603 18.2261C13.6871 18.2261 13.766 18.2508 13.8357 18.2811C14.0352 18.3677 14.2903 18.456 14.4247 18.4849C14.8353 18.5733 14.8627 18.6239 14.868 19.3028C14.8725 19.9029 14.7791 20.0212 14.4555 19.8251C14.4216 19.8045 14.34 19.7782 14.2741 19.7666C14.2082 19.7549 14.1044 19.72 14.0434 19.6889C13.9824 19.6578 13.9045 19.6323 13.8703 19.6322C13.8362 19.6321 13.7666 19.6058 13.7158 19.5738C13.6649 19.5418 13.6062 19.5155 13.5853 19.5154C13.5032 19.515 12.8541 19.1983 12.6986 19.083C12.6817 19.0704 12.5904 19.0116 12.4957 18.9524C12.4011 18.8932 12.2783 18.8044 12.2228 18.7551C12.1673 18.7058 12.1156 18.6655 12.1079 18.6655C12.1003 18.6655 12.0364 18.6227 11.9661 18.5703C11.5363 18.2505 10.9641 17.6967 10.7321 17.3764C10.4748 17.0211 10.3716 16.8707 10.3716 16.8515C10.3716 16.839 10.3438 16.805 10.3099 16.7758C10.276 16.7467 10.2483 16.7076 10.2483 16.6891C10.2483 16.6706 10.2136 16.6107 10.1712 16.5561C10.1289 16.5015 10.0942 16.4331 10.0942 16.4039C10.0942 16.3748 10.0819 16.351 10.0667 16.351C10.0516 16.351 10.0168 16.3016 9.98946 16.2411C9.96218 16.1807 9.9272 16.1115 9.91179 16.0873C9.89646 16.0632 9.84676 15.9643 9.80137 15.8676C9.75599 15.7709 9.6938 15.6391 9.66313 15.5746C9.59016 15.421 9.51211 15.1968 9.47435 15.0326C9.45771 14.9601 9.4238 14.8656 9.39907 14.8227C9.37433 14.7798 9.34528 14.6611 9.33457 14.559C9.32378 14.4569 9.29265 14.3339 9.26538 14.2855C9.1847 14.1426 9.17314 8.38625 9.25343 8.3281C9.33234 8.27096 10.73 8.29741 11.0342 8.36171ZM23.8716 13.4787C24.2209 13.5408 24.4689 13.6027 24.5445 13.6465C24.7854 13.7864 24.8857 13.8583 25.0069 13.9779C25.1886 14.1571 25.4554 14.4713 25.517 14.5785C25.5448 14.6268 25.5804 14.6862 25.5961 14.7103C25.8921 15.166 25.8383 15.4716 25.462 15.4722C25.4094 15.4724 25.3268 15.4922 25.2782 15.5162C25.2297 15.5402 25.0994 15.5737 24.9886 15.5904C24.8779 15.6073 24.765 15.6323 24.7378 15.6462C24.7106 15.66 24.5982 15.6871 24.488 15.7062C24.3778 15.7254 24.2391 15.758 24.1798 15.7785C24.1205 15.7991 24.0026 15.825 23.9178 15.8361C23.833 15.8472 23.7152 15.8786 23.6558 15.9058C23.5259 15.9657 22.3138 15.9757 22.0993 15.9188C22.0315 15.9008 21.8997 15.8672 21.8065 15.8442C21.5696 15.7859 21.1747 15.5847 21.0051 15.436C20.8294 15.282 20.5428 14.9466 20.5428 14.8949C20.5428 14.874 20.5292 14.8568 20.5126 14.8568C20.4637 14.8568 20.2942 14.4831 20.2757 14.3344C20.2539 14.1584 20.3155 14.1007 20.5628 14.0664C20.6619 14.0527 20.7917 14.0222 20.851 13.9987C20.9104 13.9753 21.0474 13.9469 21.1557 13.9358C21.2639 13.9246 21.3818 13.8978 21.4177 13.8762C21.4535 13.8546 21.573 13.8276 21.6832 13.8161C21.7934 13.8047 21.9205 13.7773 21.9657 13.7553C22.0109 13.7333 22.1288 13.7067 22.2277 13.6963C22.3266 13.6858 22.4545 13.6591 22.512 13.6369C22.5695 13.6147 22.6943 13.5883 22.7894 13.5781C22.8845 13.568 22.9891 13.5466 23.0218 13.5306C23.1587 13.4635 23.6259 13.435 23.8716 13.4787Z" fill="#019F95"/>
</svg>
