<svg width="24" height="24" viewBox="0 0 24 24" fill="none" xmlns="http://www.w3.org/2000/svg">
<g clip-path="url(#clip0_238_167)">
<path d="M23.6297 14.7703C23.6297 14.3647 23.4137 13.9809 23.0503 13.7677L21.5076 12.8784C21.539 12.6141 21.5531 12.3047 21.5531 12C21.5531 11.6953 21.538 11.3859 21.5077 11.0803L23.0504 10.1911C23.4138 9.97791 23.6298 9.59391 23.6298 9.18844C23.6298 8.19141 21.3179 3.17906 19.6679 3.17906C19.4689 3.17906 19.269 3.23034 19.088 3.33642L17.5515 4.22564C17.0494 3.86273 16.5169 3.55439 15.9544 3.30033V1.52297C15.9544 0.996563 15.6036 0.536719 15.0952 0.403594C14.0859 0.134578 13.0453 0 12 0C10.9594 0 9.91404 0.134578 8.90154 0.403734C8.39529 0.536719 8.04373 0.996563 8.04373 1.52297V3.30141C7.48123 3.55547 6.94873 3.86391 6.44669 4.22672L4.91013 3.3375C4.72966 3.23156 4.5295 3.18047 4.33029 3.18047C4.33017 3.18047 4.3304 3.18047 4.33029 3.18047C2.80872 3.18047 0.368408 7.94766 0.368408 9.18984C0.368408 9.59541 0.584361 9.97922 0.947784 10.1925L2.49044 11.0817C2.46044 11.3859 2.44544 11.6953 2.44544 12C2.44544 12.3047 2.46057 12.6141 2.49083 12.9197L0.948252 13.8094C0.584502 14.0203 0.368736 14.4047 0.368736 14.7703C0.368736 15.7673 2.68061 20.7797 4.33061 20.7797C4.52955 20.7797 4.72952 20.7284 4.91046 20.6223L6.44702 19.7331C6.94905 20.096 7.48155 20.4044 8.04405 20.6584V22.4369C8.04405 22.9633 8.39487 23.4231 8.90327 23.5562C9.91404 23.8641 10.9547 24 11.9578 24C13.0008 24 14.0423 23.8654 15.0553 23.5963C15.5634 23.4631 15.9145 23.0033 15.9145 22.4769V20.6985C16.477 20.4444 17.0095 20.136 17.5115 19.7731L19.0481 20.6624C19.2288 20.7685 19.4289 20.8197 19.628 20.8197C21.1922 20.8219 23.6297 16.05 23.6297 14.7703ZM19.4625 18.2391L17.4159 17.055C15.4444 18.4795 15.9005 18.2142 13.7048 19.2061V21.5611C13.0819 21.6708 12.5058 21.7102 11.9967 21.7102C11.2739 21.7102 10.6865 21.6308 10.2923 21.5613V19.2063C8.09154 18.2121 8.54951 18.4778 6.58122 17.0552L4.5356 18.2388C3.79779 17.3627 3.21982 16.3614 2.82888 15.2805L4.83279 14.1422C4.7531 12.9422 4.69216 12.4734 4.69216 12C4.69216 11.5303 4.7516 11.0588 4.87076 9.855L2.82982 8.68125C3.21982 7.59844 3.79919 6.59531 4.53607 5.71875L6.58263 6.90281C8.5542 5.47828 8.0981 5.74359 10.2937 4.75172V2.39906C10.9167 2.28933 11.4928 2.25 12.0019 2.25C12.7247 2.25 13.312 2.32936 13.7062 2.39887V4.75387C15.907 5.74809 15.449 5.48231 17.4173 6.90497L19.463 5.72137C20.2008 6.59747 20.7787 7.59872 21.1692 8.67966L19.125 9.85781C19.244 11.0597 19.3036 11.5284 19.3036 11.9991C19.3036 12.4688 19.2441 12.9403 19.125 14.1441L21.1678 15.3216C20.7797 16.4016 20.1984 17.4047 19.4625 18.2391ZM12 7.45781C9.52123 7.45781 7.49998 9.47953 7.49998 11.9578C7.49998 14.4361 9.52029 16.4578 12 16.4578C14.4797 16.4578 16.5 14.4361 16.5 11.9578C16.5 9.47953 14.4797 7.45781 12 7.45781ZM12 14.25C10.7578 14.25 9.74998 13.2422 9.74998 12C9.74998 10.7578 10.7578 9.75 12 9.75C13.2422 9.75 14.25 10.7592 14.25 12C14.25 13.2408 13.2422 14.25 12 14.25Z" fill="#C2C9D1"/>
<path d="M23.6297 14.7703C23.6297 14.3647 23.4137 13.9809 23.0503 13.7677L21.5076 12.8784C21.539 12.6141 21.5531 12.3047 21.5531 12C21.5531 11.6953 21.538 11.3859 21.5077 11.0803L23.0504 10.1911C23.4138 9.97791 23.6298 9.59391 23.6298 9.18844C23.6298 8.19141 21.3179 3.17906 19.6679 3.17906C19.4689 3.17906 19.269 3.23034 19.088 3.33642L17.5515 4.22564C17.0494 3.86273 16.5169 3.55439 15.9544 3.30033V1.52297C15.9544 0.996563 15.6036 0.536719 15.0952 0.403594C14.0859 0.134578 13.0453 0 12 0C10.9594 0 9.91404 0.134578 8.90154 0.403734C8.39529 0.536719 8.04373 0.996563 8.04373 1.52297V3.30141C7.48123 3.55547 6.94873 3.86391 6.44669 4.22672L4.91013 3.3375C4.72966 3.23156 4.5295 3.18047 4.33029 3.18047C4.33017 3.18047 4.3304 3.18047 4.33029 3.18047C2.80872 3.18047 0.368408 7.94766 0.368408 9.18984C0.368408 9.59541 0.584361 9.97922 0.947784 10.1925L2.49044 11.0817C2.46044 11.3859 2.44544 11.6953 2.44544 12C2.44544 12.3047 2.46057 12.6141 2.49083 12.9197L0.948252 13.8094C0.584502 14.0203 0.368736 14.4047 0.368736 14.7703C0.368736 15.7673 2.68061 20.7797 4.33061 20.7797C4.52955 20.7797 4.72952 20.7284 4.91046 20.6223L6.44702 19.7331C6.94905 20.096 7.48155 20.4044 8.04405 20.6584V22.4369C8.04405 22.9633 8.39487 23.4231 8.90327 23.5562C9.91404 23.8641 10.9547 24 11.9578 24C13.0008 24 14.0423 23.8654 15.0553 23.5963C15.5634 23.4631 15.9145 23.0033 15.9145 22.4769V20.6985C16.477 20.4444 17.0095 20.136 17.5115 19.7731L19.0481 20.6624C19.2288 20.7685 19.4289 20.8197 19.628 20.8197C21.1922 20.8219 23.6297 16.05 23.6297 14.7703ZM19.4625 18.2391L17.4159 17.055C15.4444 18.4795 15.9005 18.2142 13.7048 19.2061V21.5611C13.0819 21.6708 12.5058 21.7102 11.9967 21.7102C11.2739 21.7102 10.6865 21.6308 10.2923 21.5613V19.2063C8.09154 18.2121 8.54951 18.4778 6.58122 17.0552L4.5356 18.2388C3.79779 17.3627 3.21982 16.3614 2.82888 15.2805L4.83279 14.1422C4.7531 12.9422 4.69216 12.4734 4.69216 12C4.69216 11.5303 4.7516 11.0588 4.87076 9.855L2.82982 8.68125C3.21982 7.59844 3.79919 6.59531 4.53607 5.71875L6.58263 6.90281C8.5542 5.47828 8.0981 5.74359 10.2937 4.75172V2.39906C10.9167 2.28933 11.4928 2.25 12.0019 2.25C12.7247 2.25 13.312 2.32936 13.7062 2.39887V4.75387C15.907 5.74809 15.449 5.48231 17.4173 6.90497L19.463 5.72137C20.2008 6.59747 20.7787 7.59872 21.1692 8.67966L19.125 9.85781C19.244 11.0597 19.3036 11.5284 19.3036 11.9991C19.3036 12.4688 19.2441 12.9403 19.125 14.1441L21.1678 15.3216C20.7797 16.4016 20.1984 17.4047 19.4625 18.2391ZM12 7.45781C9.52123 7.45781 7.49998 9.47953 7.49998 11.9578C7.49998 14.4361 9.52029 16.4578 12 16.4578C14.4797 16.4578 16.5 14.4361 16.5 11.9578C16.5 9.47953 14.4797 7.45781 12 7.45781ZM12 14.25C10.7578 14.25 9.74998 13.2422 9.74998 12C9.74998 10.7578 10.7578 9.75 12 9.75C13.2422 9.75 14.25 10.7592 14.25 12C14.25 13.2408 13.2422 14.25 12 14.25Z" fill="black" fill-opacity="0.25"/>
</g>
<defs>
<clipPath id="clip0_238_167">
<rect width="24" height="24" fill="white"/>
</clipPath>
</defs>
</svg>
