<svg width="21" height="20" viewBox="0 0 21 20" fill="none" xmlns="http://www.w3.org/2000/svg">
<path d="M20.25 10C20.25 10.6234 19.7484 11.125 19.125 11.125H11.625V18.625C11.625 19.2461 11.1211 19.7505 10.5 19.7505C9.87891 19.7505 9.375 19.2484 9.375 18.625V11.125H1.875C1.25391 11.125 0.75 10.6216 0.75 10.0005C0.75 9.38125 1.25391 8.875 1.875 8.875H9.375V1.375C9.375 0.75391 9.87891 0.250473 10.5 0.250473C11.1211 0.250473 11.625 0.75391 11.625 1.375V8.875H19.125C19.7484 8.875 20.25 9.38125 20.25 10Z" fill="white"/>
</svg>
