<svg width="24" height="24" viewBox="0 0 24 24" fill="none" xmlns="http://www.w3.org/2000/svg">
<path d="M12.75 13.5H9.75C7.67812 13.5 6 15.1781 6 17.25C6 17.6625 6.3375 18 6.75 18H15.75C16.1642 18 16.5 17.6642 16.5 17.25C16.5 15.1781 14.8219 13.5 12.75 13.5ZM11.25 12C12.907 12 14.25 10.657 14.25 9C14.25 7.34297 12.907 6 11.25 6C9.59344 6 8.25 7.34297 8.25 9C8.25 10.657 9.59531 12 11.25 12ZM23.25 15H22.5V19.5H23.25C23.6642 19.5 24 19.1642 24 18.75V15.75C24 15.3375 23.6625 15 23.25 15ZM23.25 3H22.5V7.5H23.25C23.6625 7.5 24 7.1625 24 6.75V3.75C24 3.33562 23.6625 3 23.25 3ZM23.25 9H22.5V13.5H23.25C23.6625 13.5 24 13.1625 24 12.75V9.75C24 9.3375 23.6625 9 23.25 9ZM18 0H4.5C2.84297 0 1.5 1.34297 1.5 3V21C1.5 22.657 2.84297 24 4.5 24H18C19.657 24 21 22.657 21 21V3C21 1.34297 19.6547 0 18 0ZM18.75 21C18.75 21.4142 18.4142 21.75 18 21.75H4.5C4.08581 21.75 3.75 21.4142 3.75 21V3C3.75 2.58572 4.08581 2.25 4.5 2.25H18C18.4142 2.25 18.75 2.58572 18.75 3V21Z" fill="#C2C9D1"/>
<path d="M12.75 13.5H9.75C7.67812 13.5 6 15.1781 6 17.25C6 17.6625 6.3375 18 6.75 18H15.75C16.1642 18 16.5 17.6642 16.5 17.25C16.5 15.1781 14.8219 13.5 12.75 13.5ZM11.25 12C12.907 12 14.25 10.657 14.25 9C14.25 7.34297 12.907 6 11.25 6C9.59344 6 8.25 7.34297 8.25 9C8.25 10.657 9.59531 12 11.25 12ZM23.25 15H22.5V19.5H23.25C23.6642 19.5 24 19.1642 24 18.75V15.75C24 15.3375 23.6625 15 23.25 15ZM23.25 3H22.5V7.5H23.25C23.6625 7.5 24 7.1625 24 6.75V3.75C24 3.33562 23.6625 3 23.25 3ZM23.25 9H22.5V13.5H23.25C23.6625 13.5 24 13.1625 24 12.75V9.75C24 9.3375 23.6625 9 23.25 9ZM18 0H4.5C2.84297 0 1.5 1.34297 1.5 3V21C1.5 22.657 2.84297 24 4.5 24H18C19.657 24 21 22.657 21 21V3C21 1.34297 19.6547 0 18 0ZM18.75 21C18.75 21.4142 18.4142 21.75 18 21.75H4.5C4.08581 21.75 3.75 21.4142 3.75 21V3C3.75 2.58572 4.08581 2.25 4.5 2.25H18C18.4142 2.25 18.75 2.58572 18.75 3V21Z" fill="black" fill-opacity="0.25"/>
</svg>
