<svg width="24" height="22" viewBox="0 0 24 22" fill="none" xmlns="http://www.w3.org/2000/svg">
<path d="M12 0.5C5.37189 0.5 0.00128784 4.86406 0.00128784 10.25C0.00128784 12.4827 0.934569 14.5273 2.48144 16.1656C1.78394 18.0172 0.331288 19.5819 0.30785 19.5992C-0.00269652 19.9273 -0.0847278 20.4078 0.0910534 20.818C0.272731 21.2281 0.674075 21.5 1.12501 21.5C4.00782 21.5 6.23907 20.293 7.64532 19.332C8.95782 19.7563 10.4672 20 12 20C18.6281 20 23.9578 15.6345 23.9578 10.25C23.9578 4.86547 18.6281 0.5 12 0.5ZM12.0047 17.75C10.7508 17.75 9.5147 17.5566 8.33064 17.1819L7.26423 16.8479L6.35017 17.4924C5.6822 17.9668 4.76204 18.4946 3.65486 18.8518C4.00056 18.2837 4.32845 17.6448 4.58673 16.9651L5.08454 15.6526L4.11798 14.6274C3.27282 13.7234 2.25329 12.2281 2.25329 10.25C2.25329 6.11328 6.62439 2.75 12.0033 2.75C17.3822 2.75 21.7533 6.11328 21.7533 10.25C21.7533 14.3867 17.3813 17.75 12.0047 17.75Z" fill="#C2C9D1"/>
<path d="M12 0.5C5.37189 0.5 0.00128784 4.86406 0.00128784 10.25C0.00128784 12.4827 0.934569 14.5273 2.48144 16.1656C1.78394 18.0172 0.331288 19.5819 0.30785 19.5992C-0.00269652 19.9273 -0.0847278 20.4078 0.0910534 20.818C0.272731 21.2281 0.674075 21.5 1.12501 21.5C4.00782 21.5 6.23907 20.293 7.64532 19.332C8.95782 19.7563 10.4672 20 12 20C18.6281 20 23.9578 15.6345 23.9578 10.25C23.9578 4.86547 18.6281 0.5 12 0.5ZM12.0047 17.75C10.7508 17.75 9.5147 17.5566 8.33064 17.1819L7.26423 16.8479L6.35017 17.4924C5.6822 17.9668 4.76204 18.4946 3.65486 18.8518C4.00056 18.2837 4.32845 17.6448 4.58673 16.9651L5.08454 15.6526L4.11798 14.6274C3.27282 13.7234 2.25329 12.2281 2.25329 10.25C2.25329 6.11328 6.62439 2.75 12.0033 2.75C17.3822 2.75 21.7533 6.11328 21.7533 10.25C21.7533 14.3867 17.3813 17.75 12.0047 17.75Z" fill="black" fill-opacity="0.25"/>
</svg>
