<svg width="18" height="25" viewBox="0 0 18 25" fill="none" xmlns="http://www.w3.org/2000/svg">
<path d="M9 15.7895C11.1534 15.7895 12.8787 14.0263 12.8787 11.8421L12.8916 3.94737C12.8916 1.76316 11.1534 0 9 0C6.84663 0 5.10837 1.76316 5.10837 3.94737V11.8421C5.10837 14.0263 6.84663 15.7895 9 15.7895ZM16.887 11.8421C16.3422 11.8421 15.8882 12.2368 15.8103 12.7763C15.3304 16.2105 12.2819 18.5526 9 18.5526C5.71806 18.5526 2.66962 16.2237 2.18965 12.7763C2.11182 12.2368 1.64482 11.8421 1.11297 11.8421C0.438418 11.8421 -0.0804658 12.4474 0.0103388 13.1184C0.607055 17.0263 3.85008 20.0921 7.70279 20.6842V23.6842C7.70279 24.4079 8.28653 25 9 25C9.71346 25 10.2972 24.4079 10.2972 23.6842V20.6842C14.1369 20.1184 17.3929 17.0263 17.9897 13.1184C18.0805 12.4474 17.5616 11.8421 16.887 11.8421Z" fill="black"/>
</svg>
