<svg width="23" height="24" viewBox="0 0 23 24" fill="none" xmlns="http://www.w3.org/2000/svg">
<path d="M11.25 13.5H8.25C6.17812 13.5 4.5 15.1781 4.5 17.25C4.5 17.6625 4.8375 18 5.25 18H14.25C14.6642 18 15 17.6642 15 17.25C15 15.1781 13.3219 13.5 11.25 13.5ZM9.75 12C11.407 12 12.75 10.657 12.75 9C12.75 7.34297 11.407 6 9.75 6C8.09344 6 6.75 7.34297 6.75 9C6.75 10.657 8.09531 12 9.75 12ZM21.75 15H21V19.5H21.75C22.1642 19.5 22.5 19.1642 22.5 18.75V15.75C22.5 15.3375 22.1625 15 21.75 15ZM21.75 3H21V7.5H21.75C22.1625 7.5 22.5 7.1625 22.5 6.75V3.75C22.5 3.33562 22.1625 3 21.75 3ZM21.75 9H21V13.5H21.75C22.1625 13.5 22.5 13.1625 22.5 12.75V9.75C22.5 9.3375 22.1625 9 21.75 9ZM16.5 0H3C1.34297 0 0 1.34297 0 3V21C0 22.657 1.34297 24 3 24H16.5C18.157 24 19.5 22.657 19.5 21V3C19.5 1.34297 18.1547 0 16.5 0ZM17.25 21C17.25 21.4142 16.9142 21.75 16.5 21.75H3C2.58581 21.75 2.25 21.4142 2.25 21V3C2.25 2.58572 2.58581 2.25 3 2.25H16.5C16.9142 2.25 17.25 2.58572 17.25 3V21Z" fill="black"/>
</svg>
