<svg width="23" height="24" viewBox="0 0 23 24" fill="none" xmlns="http://www.w3.org/2000/svg">
<path d="M17.1401 23.3984H5.73474C2.6875 23.3984 0.750328 21.581 0.5762 18.5446L0.0102852 9.56614C-0.0767787 8.20577 0.39119 6.89981 1.32713 5.90946C2.25218 4.91911 3.55814 4.35319 4.90763 4.35319C5.25588 4.35319 5.59326 4.14642 5.7565 3.81993L6.54008 2.26366C7.18217 0.990352 8.79284 0 10.1968 0H12.689C14.0929 0 15.6927 0.990352 16.3348 2.25278L17.1183 3.84169C17.2816 4.14642 17.6081 4.35319 17.9672 4.35319C19.3167 4.35319 20.6227 4.91911 21.5477 5.90946C22.4837 6.9107 22.9516 8.20577 22.8646 9.56614L22.2986 18.5555C22.1028 21.6354 20.22 23.3984 17.1401 23.3984ZM10.1968 1.63245C9.39143 1.63245 8.36842 2.26366 7.9984 2.99282L7.21482 4.55997C6.75774 5.44149 5.87621 5.98564 4.90763 5.98564C3.99346 5.98564 3.14457 6.35566 2.51337 7.01953C1.89304 7.68339 1.57744 8.55403 1.64273 9.45732L2.20865 18.4467C2.33923 20.645 3.52549 21.766 5.73474 21.766H17.1401C19.3385 21.766 20.5247 20.645 20.6662 18.4467L21.2321 9.45732C21.2865 8.55403 20.9818 7.68339 20.3615 7.01953C19.7303 6.35566 18.8814 5.98564 17.9672 5.98564C16.9986 5.98564 16.1171 5.44149 15.66 4.58174L14.8656 2.99282C14.5064 2.27454 13.4834 1.64333 12.6781 1.64333H10.1968V1.63245Z" fill="#292D32"/>
<path d="M13.0701 8.16223H9.80524C9.35904 8.16223 8.98901 7.79221 8.98901 7.34601C8.98901 6.89981 9.35904 6.52979 9.80524 6.52979H13.0701C13.5163 6.52979 13.8864 6.89981 13.8864 7.34601C13.8864 7.79221 13.5163 8.16223 13.0701 8.16223Z" fill="#292D32"/>
<path d="M11.4378 19.0453C9.03265 19.0453 7.08459 17.0972 7.08459 14.6921C7.08459 12.2869 9.03265 10.3389 11.4378 10.3389C13.8429 10.3389 15.791 12.2869 15.791 14.6921C15.791 17.0972 13.8429 19.0453 11.4378 19.0453ZM11.4378 11.9713C9.93594 11.9713 8.71704 13.1902 8.71704 14.6921C8.71704 16.1939 9.93594 17.4128 11.4378 17.4128C12.9396 17.4128 14.1585 16.1939 14.1585 14.6921C14.1585 13.1902 12.9396 11.9713 11.4378 11.9713Z" fill="#292D32"/>
</svg>
