<svg width="19" height="22" viewBox="0 0 19 22" fill="none" xmlns="http://www.w3.org/2000/svg">
<path d="M9.3766 10.9999C12.0248 10.9999 14.1716 8.85312 14.1716 6.20491C14.1716 3.55671 12.0248 1.40991 9.3766 1.40991C6.7284 1.40991 4.5816 3.55671 4.5816 6.20491C4.5816 8.85312 6.7284 10.9999 9.3766 10.9999Z" stroke="black" stroke-width="2"/>
<path d="M14.1716 12.918H14.5089C15.9598 12.918 17.1836 13.9984 17.3636 15.4381L17.7381 18.434C17.8812 19.5788 16.9886 20.59 15.8349 20.59H2.91828C1.76461 20.59 0.872001 19.5788 1.01509 18.434L1.38958 15.4381C1.56955 13.9984 2.79343 12.918 4.24437 12.918H4.5816" stroke="black" stroke-width="2" stroke-linecap="round" stroke-linejoin="round"/>
</svg>
