<svg width="23" height="23" viewBox="0 0 23 23" fill="none" xmlns="http://www.w3.org/2000/svg">
<path d="M2.69045 22.0723L2.68869 22.0721C1.80502 21.9531 0.974629 21.1382 0.835173 20.2252L0.515811 17.8937L0.515404 17.8909C0.475306 17.6102 0.513718 17.26 0.628515 16.9122C0.742941 16.5654 0.920749 16.2591 1.12222 16.0529C1.12275 16.0524 1.12328 16.0518 1.12381 16.0513L5.80099 11.3741L6.00117 11.174L5.93251 10.8993C5.21782 8.04061 6.04336 5.02362 8.14495 2.94214L8.1461 2.94099C11.4058 -0.308597 16.7087 -0.318599 19.9784 2.94061C21.5578 4.52015 22.4226 6.62103 22.4226 8.8562C22.4226 11.0911 21.5581 13.1917 19.979 14.7711C17.863 16.8663 14.8554 17.6889 12.0217 16.9654L11.7462 16.895L11.5449 17.0959L6.85353 21.7765L6.85343 21.7764L6.845 21.7852C6.50502 22.1414 5.84341 22.4088 5.25552 22.4088C5.17912 22.4088 5.08661 22.4011 4.99732 22.3913L2.69045 22.0723ZM1.09195 17.7917L1.09238 17.7949L1.41225 20.1299L1.41214 20.1299L1.41374 20.14C1.46639 20.4735 1.65796 20.7795 1.87513 21.0018C2.09061 21.2224 2.39749 21.4281 2.74727 21.4745C2.74773 21.4746 2.7482 21.4746 2.74867 21.4747L5.06433 21.7934C5.30313 21.831 5.56882 21.7796 5.77081 21.7154C5.97437 21.6507 6.22482 21.5376 6.39769 21.3649C6.39781 21.3648 6.39794 21.3646 6.39806 21.3645L11.4302 16.3431L11.4306 16.3427C11.5036 16.2697 11.616 16.2406 11.7283 16.2747C14.4769 17.1406 17.4739 16.3981 19.5231 14.3489C20.9823 12.8898 21.7913 10.9284 21.7913 8.8562C21.7913 6.77348 20.9824 4.82347 19.5244 3.36477C18.0391 1.85745 16.0431 1.09531 14.0518 1.09531C12.0599 1.09531 10.0757 1.84714 8.55944 3.36314C6.50886 5.40277 5.76894 8.38793 6.62121 11.1645C6.65388 11.277 6.6263 11.3843 6.54393 11.4667L1.53274 16.4779C1.36038 16.6502 1.24732 16.9002 1.18198 17.0994C1.11631 17.2995 1.0619 17.5613 1.09195 17.7917Z" fill="#292D32" stroke="black"/>
<path d="M8.46583 20.5526C8.26325 20.5526 8.06067 20.478 7.90074 20.318L5.44845 17.8657C5.13925 17.5565 5.13925 17.0448 5.44845 16.7356C5.75765 16.4264 6.26943 16.4264 6.57864 16.7356L9.03092 19.1878C9.34014 19.497 9.34014 20.0088 9.03092 20.318C8.87099 20.478 8.66841 20.5526 8.46583 20.5526Z" fill="#292D32"/>
<path d="M14.1272 11.1808C12.8051 11.1808 11.7283 10.1039 11.7283 8.78178C11.7283 7.45968 12.8051 6.38281 14.1272 6.38281C15.4493 6.38281 16.5262 7.45968 16.5262 8.78178C16.5262 10.1039 15.4493 11.1808 14.1272 11.1808ZM14.1272 7.98213C13.6901 7.98213 13.3276 8.34464 13.3276 8.78178C13.3276 9.21893 13.6901 9.58144 14.1272 9.58144C14.5644 9.58144 14.9269 9.21893 14.9269 8.78178C14.9269 8.34464 14.5644 7.98213 14.1272 7.98213Z" fill="#292D32"/>
</svg>
