<svg width="32" height="39" viewBox="0 0 32 39" fill="none" xmlns="http://www.w3.org/2000/svg">
<path d="M19.6266 17.72L13.9066 23.4533L11.7066 21.2533C11.5871 21.1137 11.44 21.0004 11.2746 20.9203C11.1092 20.8403 10.929 20.7953 10.7454 20.7882C10.5617 20.7811 10.3786 20.8121 10.2075 20.8791C10.0364 20.9461 9.88104 21.0478 9.7511 21.1778C9.62116 21.3077 9.51948 21.4631 9.45245 21.6342C9.38542 21.8053 9.35447 21.9884 9.36157 22.172C9.36866 22.3557 9.41363 22.5358 9.49366 22.7013C9.5737 22.8667 9.68706 23.0138 9.82663 23.1333L12.96 26.28C13.0846 26.4035 13.2323 26.5013 13.3948 26.5677C13.5572 26.634 13.7312 26.6676 13.9066 26.6666C14.2564 26.6652 14.5916 26.5263 14.84 26.28L21.5066 19.6133C21.6316 19.4893 21.7308 19.3419 21.7985 19.1794C21.8662 19.0169 21.901 18.8426 21.901 18.6666C21.901 18.4906 21.8662 18.3163 21.7985 18.1539C21.7308 17.9914 21.6316 17.8439 21.5066 17.72C21.2568 17.4716 20.9189 17.3322 20.5666 17.3322C20.2144 17.3322 19.8764 17.4716 19.6266 17.72ZM16 8.66663C13.3629 8.66663 10.785 9.44861 8.59236 10.9137C6.39971 12.3788 4.69074 14.4612 3.68157 16.8975C2.6724 19.3339 2.40836 22.0148 2.92283 24.6012C3.4373 27.1876 4.70717 29.5634 6.57188 31.4281C8.43658 33.2928 10.8123 34.5626 13.3988 35.0771C15.9852 35.5916 18.6661 35.3275 21.1024 34.3184C23.5388 33.3092 25.6211 31.6002 27.0862 29.4076C28.5513 27.2149 29.3333 24.637 29.3333 22C29.3333 20.249 28.9884 18.5152 28.3184 16.8975C27.6483 15.2798 26.6662 13.81 25.4281 12.5719C24.1899 11.3338 22.7201 10.3516 21.1024 9.68157C19.4847 9.0115 17.7509 8.66663 16 8.66663ZM16 32.6666C13.8903 32.6666 11.828 32.041 10.0739 30.869C8.31976 29.6969 6.95259 28.031 6.14525 26.0819C5.33792 24.1328 5.12668 21.9881 5.53826 19.919C5.94983 17.8499 6.96573 15.9492 8.45749 14.4575C9.94925 12.9657 11.8499 11.9498 13.919 11.5382C15.9881 11.1267 18.1328 11.3379 20.0819 12.1452C22.031 12.9526 23.6969 14.3198 24.869 16.0739C26.041 17.828 26.6666 19.8903 26.6666 22C26.6666 24.8289 25.5428 27.542 23.5424 29.5424C21.5421 31.5428 18.8289 32.6666 16 32.6666Z" fill="#F4FFF8"/>
</svg>
